<?xml version="1.0" encoding="utf-8"?>
<!-- Generator: Adobe Illustrator 27.0.1, SVG Export Plug-In . SVG Version: 6.00 Build 0)  -->
<svg version="1.1" id="Layer_1" xmlns="http://www.w3.org/2000/svg" xmlns:xlink="http://www.w3.org/1999/xlink" x="0px" y="0px"
	 viewBox="0 0 384 384" style="enable-background:new 0 0 384 384;" xml:space="preserve">
<style type="text/css">
	.st0{fill:#010101;}
	.st1{fill:#0A7ABF;}
	.st2{fill:#010201;}
	.st3{fill:#020202;}
	.st4{fill:#040404;}
	.st5{fill:#FFFFFF;}
	.st6{fill:#FDFDFD;}
	.st7{fill:#FCFBFB;}
	.st8{fill:#FEFEFE;}
</style>
<g>
	<path class="st0" d="M0,34c1.3-2.9,1.9-6.1,3.8-8.8C8.9,17.4,16,13.2,25.3,13c6.1-0.1,12.2,0,18.4,0c5.2,0,7.5,2.2,7.5,7.5
		c0.1,9,0.2,18-0.1,27c-0.1,3.2,0.9,3.8,3.9,3.8c72-0.1,143.9,0,215.9-0.2c3.4,0,4.3,0.8,4.2,4.2c-0.3,8.9-0.1,8.9-8.9,8.9
		c-70.2,0-140.4,0-210.6-0.1c-3.6,0-4.5,0.8-4.5,4.5c0.1,72,0.1,143.9,0.1,215.9c0,8.4-1.6,10.1-10,10.1c-5.2,0-10.5-0.1-15.7,0
		c-7,0.1-12.4,5.3-12.6,12.2c-0.3,6.5,4.8,12.2,11.6,12.9c1.6,0.2,3.2,0.2,4.9,0.2c55,0,109.9,0,164.9-0.1c3.3,0,4.5,0.6,4.4,4.2
		c-0.3,8.9-0.1,8.9-9,8.9c-53.6,0-107.2-0.2-160.8,0.1c-13.6,0.1-25.4-7.2-28.3-20.5c0-0.2-0.3-0.3-0.5-0.5C0,219.4,0,126.7,0,34z"
		/>
	<path class="st1" d="M176.9,384c-5.6-4.1-5.8-7.5-0.9-12.5c65.1-65.1,130.2-130.2,195.2-195.2c2.3-2.3,4.5-4.4,8.1-3.1
		c3.7,1.4,4.4,4.2,4.4,7.7c0,63.1,0,126.1,0,189.2c0,1.5-0.2,3,0,4.5c0.5,3.9-0.7,7-3.8,9.4C312.3,384,244.6,384,176.9,384z"/>
	<path class="st0" d="M160.7,128.3c9.2,11.5,17.9,22.4,26.6,33.3c4.2,5.3,8.5,10.5,12.6,15.8c1,1.2,1.9,2,3.7,2
		c27.6-0.1,55.2,0,83.6,0c-3.2-4-5.9-7.8-9-11.3c-1.7-1.9-1.5-2.9,0.5-4.3c2.7-1.8,5.3-5.5,7.7-5.3c2.3,0.2,4.3,4.4,6.3,6.9
		c4,4.9,7.9,10,11.9,14.9c1.7,2.1,2.7,4.4,2.7,7.2c-0.1,13.4-0.1,26.7,0,40.1c0,2.5-0.7,3.3-3.2,3.1c-3.2-0.3-7.4,1.3-9.4-0.6
		c-2-2-0.6-6.2-0.6-9.4c-0.1-8.4-0.1-16.7,0-25.1c0-2.5-0.4-3.4-3.1-3.4c-27.7,0.1-55.4,0.1-83.2,0c-2.8,0-3.2,0.9-3.2,3.4
		c0.1,19.1,0.1,38.2,0,57.3c0,2.7,0.8,3.3,3.3,3.2c17-0.1,34,0,51-0.1c2.8,0,3.8,0.6,3.5,3.5c-0.3,3.1,0.9,7.1-0.6,9
		c-1.7,2-5.9,0.6-9,0.6c-51.1,0-102.2,0-153.2,0c-8.4,0-10.2-1.8-10.2-10c0-23.5,0-47,0-70.4c0-3.4,1-6.2,3.1-8.9
		c16-19.9,32-39.9,47.9-59.9c2.6-3.2,5.5-4.6,9.6-4.6c21.4,0.1,42.7,0.1,64.1,0c2.8,0,3.8,0.6,3.5,3.5c-0.3,3.1,0.9,7.1-0.6,9
		c-1.7,2-5.9,0.6-8.9,0.6C192.5,128.4,177,128.3,160.7,128.3z"/>
	<path class="st0" d="M243.5,160.2c-1.8-0.1-3.4-0.2-4.4-1.4c-2.1-2.8-3.5-1.3-5.2,0.5c-3.3,3.5-6.9,6.9-10.3,10.4
		c-1.2,1.3-2,1.4-3.2,0.1c-2.3-2.6-6.3-4.8-6.8-7.6c-0.4-2.5,4.1-4.7,6.3-7.2c0.9-1,1.9-1.9,2.9-2.9c2.3-2.4,6.2-4.3,1.6-8.3
		c-1.4-1.2-0.7-3.8-0.1-5.7c1.9-5.8,3.8-11.5,5.8-17.3c0.6-1.8,1.7-3.3,3.1-4.6c37.6-37.6,75.2-75.2,112.9-112.8
		c4.1-4.1,7.2-4.1,11.3-0.1c7.9,7.8,15.8,15.7,23.6,23.6c4,4.1,4,7.2-0.1,11.3c-37.6,37.6-75.2,75.2-112.8,112.9
		c-1.5,1.5-3.2,2.6-5.3,3.3c-5.6,1.8-11.1,3.7-16.6,5.5C245.2,159.9,244.2,160,243.5,160.2z"/>
	<path class="st2" d="M249.8,204.9c4,0,8,0,12,0c4.1,0.1,6.8,2.2,6.9,6.3c0.2,8.6,0.2,17.2,0,25.8c-0.1,4.1-2.6,6.3-6.9,6.3
		c-8.2,0.1-16.5,0.1-24.7,0c-4.5-0.1-6.9-2.5-6.9-7c-0.1-8.1-0.1-16.2,0-24.3c0-4.6,2.6-7,7.3-7.1
		C241.6,204.8,245.7,204.9,249.8,204.9z"/>
	<path class="st3" d="M332.6,140.9c0-13.9,0-27.7,0-41.6c0-2.3,0.3-3.4,3-3.2c3.2,0.3,7.4-1,9.4,0.6c2,1.7,0.6,6.1,0.6,9.3
		c0.1,25.3,0,50.7,0.1,76c0,3.1-0.8,4-3.9,3.9c-9.1-0.2-9.1,0-9.1-9.1C332.6,164.8,332.6,152.9,332.6,140.9z"/>
	<path class="st4" d="M79.2,76.8c0.2,0,0.5,0,0.7,0c10.8,0,10.8,0,9.8,11c-0.1,1.6-0.6,2.2-2.2,2.2c-2.5-0.1-5,0.2-7.5-0.1
		c-2.7-0.3-3.6,0.9-3.2,3.4c0,0.2,0,0.5,0,0.7c-0.3,2.8,1.3,7.2-0.7,8.1c-3.1,1.4-7.3,0.5-11,0.6c-1.5,0-1.4-1-1.4-2.1
		c0-5.7-0.1-11.5,0.1-17.2c0.1-3.9,2.7-6.4,6.7-6.6C73.4,76.7,76.3,76.8,79.2,76.8z"/>
	<path class="st4" d="M63.8,279.3c0-0.4,0-0.7,0-1.1c0-10.4,0.7-10.9,11.3-9.5c1.9,0.2,1.8,1.2,1.8,2.5c0,2.7,0.1,5.5,0,8.2
		c-0.1,1.7,0.5,2.2,2.1,2.1c2.5-0.1,5,0.2,7.5-0.1c2.8-0.3,3.3,0.9,3.3,3.4c0,9.8,0.1,9.8-9.5,9.8c-3,0-6,0.1-9,0
		c-4.8-0.2-7.3-2.7-7.4-7.5C63.7,284.5,63.8,281.9,63.8,279.3z"/>
	<path class="st5" d="M12.8,285c0-1.7,0-2.9,0-4.1c0-79.8,0-159.5,0-239.3c0-11,4.7-15.8,15.7-15.7c3.2,0,7.4-1.4,9.3,0.7
		c1.6,1.8,0.5,5.9,0.5,9c0,80.5,0,161,0.1,241.6c0,3.6-0.8,4.6-4.4,4.4C26.9,281.2,19.7,281.1,12.8,285z"/>
	<path class="st5" d="M195.5,371.2c58.6-58.5,116.9-116.9,175.4-175.4c0,1.1,0,2.2,0,3.4c0,55.9,0,111.9,0.1,167.8
		c0,3.4-0.9,4.2-4.3,4.2c-55.9-0.1-111.9-0.1-167.8-0.1C197.9,371.2,196.8,371.2,195.5,371.2z"/>
	<path class="st5" d="M147.3,192.1c13.9,0,27.7,0.1,41.6-0.1c2.5,0,3.1,0.6,3.1,3.1c-0.1,19.2-0.1,38.5,0,57.7c0,2.3-0.3,3.3-3,3.2
		c-4.4-0.3-8.7-0.2-13.1,0c-2.5,0.1-3.1-0.6-3.1-3.1c0.1-12.9,0.1-25.7,0.1-38.6c0-7.7-1.8-9.4-9.5-9.4c-11.1,0-22.2,0-33.3,0
		c-6.5,0-8.6,2-8.6,8.4c0,13-0.1,26,0.1,39c0.1,3.3-0.9,4-3.9,3.8c-4.1-0.3-8.2-0.2-12.4,0c-2,0.1-2.8-0.4-2.8-2.6
		c0.1-19.6,0.1-39.2,0-58.8c0-2.4,1.1-2.5,2.9-2.5C119.3,192.1,133.3,192.1,147.3,192.1z"/>
	<path class="st5" d="M109.6,179c12.7-15.8,25-31.3,37.5-46.9c12.5,15.7,24.9,31.1,37.5,46.9C159.5,179,134.9,179,109.6,179z"/>
	<path class="st5" d="M159.7,236.8c0,5.6-0.1,11.2,0,16.8c0,1.8-0.5,2.4-2.3,2.3c-6.9-0.1-13.7-0.1-20.6,0c-1.8,0-2.6-0.3-2.6-2.4
		c0.1-11.1,0.1-22.2,0-33.3c0-2,0.6-2.6,2.5-2.6c6.7,0.1,13.5,0.1,20.2,0c2.1,0,2.8,0.5,2.8,2.7
		C159.6,225.8,159.7,231.3,159.7,236.8z"/>
	<path class="st5" d="M352,16c4.6,4.7,9.2,9.5,14,14c2,1.9,1.7,2.8-0.1,4.5c-19.5,19.4-38.9,38.8-58.3,58.2
		c-1.8,1.8-3.6,3.4-5.3,5.3c-1.3,1.6-2.2,1.4-3.5,0c-4.2-4.4-8.6-8.7-13-13c-1.2-1.2-1.4-1.9-0.1-3.3c21.9-21.8,43.7-43.6,65.5-65.4
		C351.4,16.2,351.7,16.1,352,16z"/>
	<path class="st5" d="M275,92.7c0.6,0.6,1.2,1,1.7,1.5c4.3,4.3,8.6,8.7,13,12.9c1.4,1.4,1.4,2.2,0,3.6c-7.6,7.4-15.1,14.9-22.5,22.5
		c-1.4,1.4-2.1,1.5-3.5,0.1c-4.2-4.4-8.6-8.7-12.9-13c-1.1-1.1-1.7-1.8-0.3-3.3c7.7-7.6,15.4-15.3,23-23
		C274,93.6,274.4,93.3,275,92.7z"/>
	<path class="st6" d="M241.1,129.8c4.4,4.3,8.8,8.6,13.8,13.4c-4.2,0-7.1,4.3-11.4,1.8C236.5,141,238,135.4,241.1,129.8z"/>
	<path class="st7" d="M255.7,224.2c0,6.2,0,6.2-6.2,6.2c-6.4,0-6.4,0-6.4-6.5c0-6.2,0-6.2,6.3-6.2
		C255.7,217.7,255.7,217.7,255.7,224.2z"/>
	<path class="st1" d="M345.5,307.4c0,10.1,0,20.2,0,30.3c0,5.6-2.4,8-8,8c-20.3,0-40.7,0-61,0c-3.3,0-5.9-0.8-7.4-4
		c-1.5-3.3-0.1-5.7,2.2-8c20.7-20.7,41.5-41.5,62.2-62.2c2.3-2.3,4.7-3.7,8-2.2c3.2,1.4,4,4.1,4,7.3
		C345.5,286.9,345.5,297.2,345.5,307.4z"/>
	<path class="st8" d="M332.6,292.4c0,12.4,0,25.5,0,38.5c0,1.6-0.8,1.8-2.1,1.8c-12.9,0-25.9,0-38.3,0
		C305.6,319.4,319.1,305.8,332.6,292.4z"/>
</g>
</svg>
