<?xml version="1.0" encoding="utf-8"?>
<!-- Generator: Adobe Illustrator 27.0.1, SVG Export Plug-In . SVG Version: 6.00 Build 0)  -->
<svg version="1.1" id="Layer_1" xmlns="http://www.w3.org/2000/svg" xmlns:xlink="http://www.w3.org/1999/xlink" x="0px" y="0px"
	 viewBox="0 0 384 384" style="enable-background:new 0 0 384 384;" xml:space="preserve">
<style type="text/css">
	.st0{fill:#010101;}
	.st1{fill:#0D7BC0;}
	.st2{fill:#FFFFFF;}
	.st3{fill:#FBFCFC;}
	.st4{fill:#FDFEFF;}
</style>
<g>
	<path class="st0" d="M119.8,0.4c13.5,4.2,27,8.5,40.5,12.6c40.9,12.5,81.8,25,122.7,37.4c1.7,0.5,3.4,0.7,5.1,0.7
		c12.8,0,25.7-0.1,38.5,0.1c8.9,0.1,16.4,6.9,17.5,15.4c1.2,9-4,17.4-12.5,20.2c-3.3,1.1-6.6,1.3-10,0.9c-3.6-0.4-4.8,0.6-4.7,4.5
		c0.3,12.2,0.1,24.4,0.1,36.7c0,5.3-1.3,6.8-6.6,7.6c-4,0.7-6.8,4-6.6,7.8c0.3,3.7,3.4,6.8,7.1,7c3.8,0.2,7.1-2.6,7.7-6.6
		c0.1-0.4,0-0.8,0.1-1.1c0.6-3.4,3.1-5.6,6.1-5.3c3.1,0.3,5.1,2.7,5.1,6.3c0,9-7.3,16.8-16.8,18c-8.8,1.1-17.8-5.4-19.9-14.1
		c-2.1-8.7,1.8-17.3,9.9-21.2c2.2-1.1,2.7-2.3,2.7-4.5c-0.1-10.3-0.2-20.7,0-31c0.1-3.1-0.7-3.9-3.8-3.9c-21.3,0.1-42.6,0.1-64,0.1
		c-1.4,0-2.8,0-4.1-0.3c-2.9-0.8-4.4-2.9-4.1-5.9c0.3-2.9,2.1-4.7,5.2-5c1.1-0.1,2.2,0,3.4,0c28.3,0,56.6,0,84.9,0
		c1.7,0,3.5,0.1,5.2-0.6c3.2-1.4,4.7-3.9,4.4-7.5c-0.3-3.2-2.8-5.7-6.1-6.1c-1.2-0.1-2.5-0.1-3.7-0.1c-55.9,0-111.7,0-167.6-0.1
		c-3.7,0-4.1,1.1-3.3,4.2c0.8,3.2,0.3,7.7,2.3,9.6c2.2,2.1,6.6,0.6,10.1,0.6c14.3,0.1,28.7,0,43,0c4.9,0,7.2,1.8,7.2,5.5
		c0,3.6-2.5,5.7-7.2,5.7c-16,0-31.9,0.1-47.9,0c-2.8,0-3.8,0.3-3.4,3.5c1,6.8-2.8,10.9-9.9,10.7c-3.1-0.1-3.8,0.7-3.8,3.8
		c0.1,78.6,0.1,157.1,0,235.7c0,3.1,0.7,4.3,3.8,3.8c1.5-0.2,3,0,4.5,0c3.9,0,6.4,1.9,7.5,5.5c2.3,7.6,4.7,15.2,6.9,22.9
		c1.6,5.6-1.6,9.7-7.4,9.7c-26.7,0.1-53.4,0.1-80.1,0c-5.7,0-9-4.3-7.4-9.8c2.2-7.6,4.5-15.2,7-22.8c1.3-4.1,3.6-5.4,8.2-5.5
		c7.5-0.1,7.5-0.1,7.5-7.5c0-77.1,0-154.1,0.1-231.2c0-3.4-0.4-4.8-4.3-4.6c-6.5,0.3-10.2-4.3-9.1-11c0.5-2.8-0.3-3.3-2.9-3.3
		c-6.4,0.2-12.7,0.1-19.1,0c-2,0-2.6,0.6-2.5,2.5c0.1,5,0.1,10,0,15c-0.1,2,0.6,2.6,2.6,2.5c2.5-0.1,5-0.1,7.5,0
		c5.4,0.2,8.9,3.4,9.1,8.9c0.2,6.5,0.2,13,0,19.4c-0.2,5.4-3.6,8.8-9.1,8.8c-10.3,0.2-20.7,0.2-31,0c-5.7-0.1-8.9-3.6-9-9.3
		c-0.1-6.2-0.1-12.5,0-18.7c0.1-5.7,3.4-8.9,9.1-9.2c0.4,0,0.8,0,1.1,0c2.8-0.2,6.7,1.3,8.2-0.7c1.4-1.8,0.5-5.5,0.5-8.4
		c0-3.5,1.2-8-0.5-10.2c-1.8-2.3-6.5-0.5-9.9-0.8c-5.2-0.3-8.4-3.3-8.5-8.5c-0.1-6.6-0.1-13.2,0-19.8c0.1-5.3,3.2-8.6,8.4-8.3
		c5.6,0.4,9.9-1.6,14.4-4.7C70.7,31.2,93.4,16,115.9,0.7c0.1-0.1,0.1-0.2,0.1-0.4C117.3,0.4,118.5,0.4,119.8,0.4z"/>
	<path class="st1" d="M270.8,383.5c-26.1,0-52.1,0-78.2,0c-1.2,0-2.5,0.1-3.7-0.1c-2.9-0.6-4.6-2.5-4.6-5.5c0-3,1.8-4.8,4.7-5.5
		c0.4-0.1,0.7,0,1.1-0.1c2.3-0.2,5.4,1,6.8-0.5c1.5-1.7,0.5-4.8,0.5-7.2c0-17.3,0-34.7,0-52c0-1.4,0-2.8,0.3-4.1
		c0.6-2.6,2.4-4,5.1-4.2c2.7-0.1,4.6,1.2,5.4,3.7c0.5,1.5,0.5,3.2,0.5,4.8c0,18.7,0.1,37.4,0,56.1c0,2.7,0.5,3.6,3.4,3.5
		c10.7-0.2,21.4-0.2,32.2,0c2.5,0,3.1-0.7,3-3.1c-0.1-11.7-0.1-23.4-0.1-35.2c0-6.3,2.6-8.8,8.9-8.8c10.1,0,20.2,0,30.3,0
		c6.1,0,8.7,2.6,8.7,8.6c0,11.8,0.1,23.7-0.1,35.5c0,2.3,0.6,2.9,2.9,2.9c11-0.1,21.9-0.1,32.9,0c2.5,0,3.1-0.7,3.1-3.1
		c-0.1-36.7-0.1-73.3,0-110c0-2.5-0.7-3.1-3.1-3.1c-13.1,0.1-26.2,0.1-39.3,0.1c-7.4,0-10.2-2.8-10.2-10.2c-0.1-7.1-0.1-7.1-7.2-7.1
		c-20.7,0-41.4,0-62.1-0.1c-2.6,0-3.3,0.6-3.3,3.3c0.1,13,0.1,25.9,0.1,38.9c0,1.4,0,2.8-0.4,4.1c-0.7,2.8-2.7,4.2-5.5,4.1
		c-2.8-0.1-5-1.7-5.1-4.5c-0.4-16.7-0.5-33.4,0.1-50.1c0.1-2.1,1.3-4,3.1-4.9c2.6-1.3,2.6-3.2,2.6-5.5c-0.1-23.4,0-46.9,0-70.3
		c0-1.2,0-2.5,0.1-3.7c0.3-3.2,2.1-5.1,5.3-5.2c3.2-0.1,5,1.7,5.7,4.8c0.4,1.9-0.9,4.7,0.8,5.6c1.8,0.9,4.4,0.4,6.6,0.4
		c13,0,25.9-0.1,38.9,0.1c3.5,0,5.5-0.4,4.8-4.5c-0.3-1.5,0.1-3,1.1-4.2c1.4-1.7,3.2-2.5,5.3-2.1c2.2,0.4,3.9,1.7,4.4,4
		c0.3,1.3,0.3,2.7,0.3,4.1c0,14.7,0.1,29.4,0,44.1c0,2.3,0.4,3.2,3,3.2c15-0.1,29.9-0.1,44.9,0c2.4,0,3.3-0.6,3.1-3.1
		c-0.2-2.4-0.1-4.7,0-7.1c0.1-4,2.1-6.3,5.3-6.4c3.4-0.1,5.8,2.3,5.8,6.3c0.1,8,0,16,0,23.9c0,9.4,0,18.7,0,28.1
		c0,1.9,0.2,3.4,2.2,4.6c3.5,2.1,4,5.7,4,9.5c0,37.3,0,74.6-0.1,111.9c0,3.5,0.7,5.1,4.4,4.4c0.7-0.1,1.5,0,2.2,0
		c4,0.1,6.5,2.3,6.4,5.7c0,3.4-2.5,5.5-6.6,5.5c-21.4,0-42.9,0-64.3,0C281.5,383.5,276.1,383.5,270.8,383.5z"/>
	<path class="st1" d="M222.4,289.2c0-3.7-0.1-7.5,0-11.2c0.1-4.9,2.7-7.8,7.6-7.9c7.7-0.2,15.5-0.2,23.2,0c5,0.1,7.6,2.8,7.7,7.7
		c0.1,7.7,0.2,15.5,0,23.2c-0.1,4.9-2.9,7.5-7.9,7.6c-7.6,0.1-15.2,0.1-22.8,0c-4.8-0.1-7.6-2.9-7.7-7.7
		C222.3,296.9,222.4,293.1,222.4,289.2z"/>
	<path class="st1" d="M319.5,289.4c0,3.7,0.1,7.5,0,11.2c-0.1,5-2.9,7.9-7.9,7.9c-7.6,0.1-15.2,0.1-22.8,0c-4.8-0.1-7.5-2.7-7.6-7.4
		c-0.1-8-0.1-16,0-23.9c0.1-4.2,2.5-6.9,6.7-7c8.2-0.3,16.5-0.3,24.7,0c4.4,0.1,6.8,3.1,7,7.7c0,0.1,0,0.2,0,0.4
		C319.5,281.9,319.5,285.7,319.5,289.4z"/>
	<path class="st2" d="M244.5,51.1c-30.8,0-61.6,0-92.3,0c-1.9,0-2.7-0.5-2.9-2.4c-0.2-1.6-0.5-3.2-0.9-4.8c-1.1-4.6-3.9-7-8.7-7.2
		c-4.2-0.2-8.5-0.3-12.7,0c-2.9,0.2-3.5-0.9-3.4-3.6c0.2-5.4,0.2-10.7,0-16.1c-0.1-2.9,0.3-3.6,3.4-2.6c22.4,7,44.9,13.7,67.4,20.6
		c15.9,4.9,31.8,9.7,47.8,14.6c0.8,0.2,1.6,0.5,2.4,0.8C244.5,50.7,244.5,50.9,244.5,51.1z"/>
	<path class="st2" d="M91.3,90.9c2.4-13.8,4.7-27.3,7-40.8c0.3-1.6,0.9-2.3,2.7-2.3c11.5,0.1,22.9,0.1,34.4,0c2,0,2.5,0.8,2.8,2.5
		c2.2,12.9,4.4,25.7,6.7,38.6c0.3,1.5,0,1.9-1.5,1.9C126,90.9,108.8,90.9,91.3,90.9z"/>
	<path class="st2" d="M153.3,372.3c-23,0-45.5,0-68.1,0c-2.3,0-2.4-0.7-1.7-2.6c1.6-4.3,1.3-10.3,4.6-12.6c2.9-2.1,8.4-0.5,12.8-0.5
		c14.8,0,29.7,0.1,44.5-0.1c2.6,0,3.7,0.7,4.3,3.2C150.6,363.8,152,367.8,153.3,372.3z"/>
	<path class="st2" d="M60.8,62.3c7.1,0,14.2,0.1,21.3,0c2.2,0,3,0.5,2.3,2.7c-0.1,0.2-0.1,0.5-0.2,0.7c-0.7,3.5-0.2,8.3-2.4,10.3
		c-2.4,2.1-7.1,0.6-10.8,0.6c-10.5,0.1-20.9,0-31.4,0.1c-2.3,0-3.4-0.4-3.2-3c0.2-2.7,0.3-5.5,0-8.2c-0.3-2.8,0.9-3.2,3.4-3.2
		C46.9,62.4,53.9,62.3,60.8,62.3z"/>
	<path class="st2" d="M62.6,50.3C79,39.2,95.4,28.1,112.4,16.6c0,6.6,0,12.6,0,18.6c0,1.8-1.3,1.5-2.4,1.5c-3.9,0-7.7,0-11.6,0
		c-6.8,0.1-9.8,2.6-10.8,9.2c-0.8,5.2-0.8,5.2-6,5.2c-6.3,0-12.6,0-18.9,0C62.7,50.9,62.6,50.6,62.6,50.3z"/>
	<path class="st2" d="M49.8,133.9c-3.2,0-6.5-0.2-9.7,0.1c-3.1,0.3-3.7-1-3.5-3.7c0.3-3.6-1.2-8.4,0.6-10.4c2.1-2.3,7-0.6,10.7-0.7
		c4.4-0.1,8.7,0.1,13.1-0.1c2-0.1,2.6,0.6,2.5,2.6c-0.1,3.2-0.2,6.5,0,9.7c0.1,2.3-0.9,2.7-2.8,2.7C57,133.8,53.4,133.9,49.8,133.9z
		"/>
	<path class="st2" d="M111,102.1c6.7,0,12.5,0,18.4,0c1.3,0,2.4-0.1,2.4,1.8c-0.1,6.7,0,13.3,0,21C124.5,117.1,118,109.9,111,102.1z
		"/>
	<path class="st3" d="M131.6,336.4c-6.9-7.7-13.2-14.6-20.1-22.2c6.8,0,12.7,0,18.7,0c1.5,0,1.4,1.1,1.4,2.1
		C131.6,322.7,131.6,329,131.6,336.4z"/>
	<path class="st3" d="M111.6,145.1c6.7,0,12.5,0,18.3,0c1.6,0,1.8,0.8,1.8,2.1c0,6.3,0,12.6,0,20
		C124.7,159.6,118.4,152.7,111.6,145.1z"/>
	<path class="st3" d="M131.6,251.8c-7-7.7-13.2-14.6-20.1-22.2c6.8,0,12.7,0,18.5,0c1.7,0,1.5,1.3,1.5,2.4
		C131.6,238.2,131.6,244.4,131.6,251.8z"/>
	<path class="st2" d="M111.6,187.4c6.6,0,12.3,0,18,0c1.3,0,2.1,0.2,2,1.8c-0.1,6.4,0,12.9,0,20.3
		C124.7,201.9,118.5,195,111.6,187.4z"/>
	<path class="st2" d="M111.6,272c6.6,0,12.3,0,17.9,0c1.6,0,2.2,0.4,2.1,2.1c-0.1,6.3,0,12.6,0,20
		C124.8,286.5,118.5,279.6,111.6,272z"/>
	<path class="st2" d="M124.6,176.2c-6.5,0-12.2,0-17.9,0c-1.6,0-2.2-0.4-2.1-2.1c0.1-6.3,0-12.7,0-20
		C111.4,161.7,117.7,168.6,124.6,176.2z"/>
	<path class="st2" d="M104.6,238.7c6.9,7.7,13.2,14.6,19.9,22.1c-6.6,0-12.5,0-18.5,0c-1.1,0-1.5-0.4-1.5-1.5
		C104.6,252.7,104.6,246.2,104.6,238.7z"/>
	<path class="st2" d="M124.6,345.3c-6.4,0-12,0-17.6,0c-1.3,0-2.4,0.2-2.4-1.8c0.1-6.4,0-12.8,0-20.2
		C111.5,330.9,117.8,337.8,124.6,345.3z"/>
	<path class="st2" d="M105.3,112.5c6.3,7,12.5,13.9,19.2,21.3c-6.7,0-12.5,0-18.3,0c-1.4,0-1.7-0.6-1.7-1.8c0-6.2,0-12.4,0.1-18.6
		C104.7,113.2,105,112.9,105.3,112.5z"/>
	<path class="st2" d="M124.5,218.4c-6.6,0-12.4,0-18.2,0c-1.3,0-1.7-0.5-1.7-1.7c0-6.4,0-12.8,0-20.3
		C111.5,204,117.7,210.9,124.5,218.4z"/>
	<path class="st2" d="M124.5,303c-6.7,0-12.4,0-18.1,0c-1.5,0-1.9-0.7-1.9-2c0-6.3,0-12.7,0-20C111.4,288.5,117.6,295.3,124.5,303z"
		/>
	<path class="st2" d="M239.6,200.2c-7.3,0-14.7-0.1-22,0c-2.3,0-3.2-0.4-3.2-3c0.2-9.1,0.1-18.2,0-27.3c0-2.3,0.3-3.3,3-3.3
		c15.1,0.1,30.1,0.1,45.2,0c2.1,0,2.8,0.5,2.8,2.7c-0.1,9.3-0.1,18.7,0,28c0,2.5-1,2.8-3.1,2.8C254.8,200.1,247.2,200.2,239.6,200.2
		z"/>
	<path class="st2" d="M302.5,211.4c7.3,0,14.7,0.1,22,0c2.2,0,3,0.4,3,2.8c-0.1,9.3-0.1,18.7,0,28c0,2-0.5,2.8-2.7,2.8
		c-10-0.1-19.9-0.1-29.9,0c-2.2,0-2.9-0.7-2.7-2.8c0.1-1.6,0.1-3.2,0-4.8c-0.2-6.4-3.5-9.6-9.8-9.7c-5.9-0.2-6-0.2-5.9-6.2
		c0-3.2-1-7.4,0.6-9.4c1.7-2.1,6.1-0.6,9.3-0.6C291.8,211.4,297.2,211.4,302.5,211.4z"/>
	<path class="st2" d="M283.7,354.7c0,5.1-0.1,10.2,0,15.3c0,1.8-0.5,2.3-2.3,2.3c-7-0.1-14-0.1-20.9,0c-1.8,0-2.3-0.5-2.3-2.3
		c0.1-10.3,0.1-20.7,0-31c0-1.9,0.4-2.6,2.5-2.6c6.9,0.1,13.7,0.1,20.6,0c2,0,2.5,0.6,2.5,2.5C283.6,344.2,283.7,349.4,283.7,354.7z
		"/>
	<path class="st2" d="M240,211.4c7.5,0,14.9,0.1,22.4,0c2.2,0,3.1,0.5,3,2.9c-0.2,3.6-0.1,7.2,0,10.8c0.1,1.8-0.4,2.7-2.5,2.6
		c-15.3-0.1-30.6-0.1-45.9,0c-1.9,0-2.7-0.5-2.6-2.5c0.1-3.7,0.2-7.5,0-11.2c-0.1-2.3,0.9-2.6,2.9-2.6
		C224.9,211.5,232.5,211.4,240,211.4z"/>
	<path class="st4" d="M249.7,289.2c0,8.1,0,8.1-8,8.1c-8,0-8,0-8-8.1c0-8,0-8,7.8-8c0.1,0,0.2,0,0.4,0
		C249.7,281.3,249.7,281.3,249.7,289.2z"/>
	<path class="st2" d="M308.3,289.5c0,7.9,0,7.9-7.9,7.9c-8.1,0-8.1,0-8.1-8.2c0-7.9,0-7.9,8-7.9
		C308.3,281.3,308.3,281.3,308.3,289.5z"/>
</g>
</svg>
