<?xml version="1.0" encoding="utf-8"?>
<!-- Generator: Adobe Illustrator 27.0.1, SVG Export Plug-In . SVG Version: 6.00 Build 0)  -->
<svg version="1.1" id="Layer_1" xmlns="http://www.w3.org/2000/svg" xmlns:xlink="http://www.w3.org/1999/xlink" x="0px" y="0px"
	 viewBox="0 0 384 384" style="enable-background:new 0 0 384 384;" xml:space="preserve">
<style type="text/css">
	.st0{fill:#FFFFFF;}
	.st1{fill:#0A7ABF;}
	.st2{fill:#010101;}
	.st3{fill:#FFFEFE;}
	.st4{fill:#FEFEFE;}
</style>
<g>
	<path class="st0" d="M383.9,333.8c0,15.7-0.1,31.4,0.1,47.1c0,2.6-0.5,3.1-3.1,3.1c-119.3-0.1-238.7-0.1-358-0.1
		c-7,0-14-0.1-20.9,0c-1.6,0-2.2-0.3-1.9-1.9c0.1-0.5,0-1,0-1.5c0-125.7,0-251.4-0.1-377.1C0,0.6,0.7,0,3.5,0
		C52.2,0.1,101,0.1,149.7,0.1c0,1.6-1.4,1.9-2.4,2.5c-6.1,3.6-9.2,8.6-9.2,15.9c0.1,38.9,0,77.8,0.1,116.7c0,10.6,6.5,17.1,17,17.1
		c66.4,0,132.9,0,199.3,0c10.5,0,17-6.5,17-17.1c0-38.9,0-77.8,0.1-116.7c0-7.3-3.1-12.3-9.2-15.9c-1-0.6-2.4-0.9-2.4-2.5
		c7.1,0,14.2,0.1,21.3-0.1c2.2-0.1,2.7,0.5,2.7,2.7c-0.1,27.4-0.1,54.9-0.1,82.3c0,54.2,0,108.5,0,162.7c-1.7-0.1-1.8-1.5-2.3-2.6
		c-2.4-5.9-6.3-10.4-12.2-13.1c-2.9-1.3-3.9-3.4-3.9-6.5c-0.1-7.5,0.7-15-0.6-22.4c-1.8-10.6-9.1-17.1-19.8-17.1
		c-60.2,0-120.4,0-180.7,0c-10.5,0-17.9,6.5-19.7,16.8c-1.2,6.9-0.7,13.9-0.6,20.9c0.1,4.4-1.4,7-5.4,9.1
		c-7.6,4-11.8,10.6-11.9,19.4c-0.1,25.7-0.1,51.4,0,77.1c0,9.1,6.4,15.5,15.4,16c4.6,0.2,9.2,0,13.8,0.1c5,0.1,5.8,0.8,5.8,6
		c0.1,7.6,0,15.2,0,22.8c0,6.3,1.5,7.8,7.7,7.9c6.9,0.1,13.7,0,20.6,0c5.4,0,6.7-1,8-6.4c2-8.4,4-16.7,6.1-25.1
		c1.1-4.4,1.9-5.1,6.4-5.1c29.3-0.1,58.6-0.1,87.9,0c4.8,0,5.5,0.7,6.7,5.3c2.1,8.3,4.1,16.7,6.1,25.1c1.3,5.3,2.6,6.2,8.1,6.3
		c7,0,14,0.1,20.9,0c5.5-0.1,7.1-1.6,7.1-7.2c0.1-8,0-16,0-23.9c0-4.6,0.8-5.4,5.5-5.5c4.1-0.1,8.2-0.1,12.3,0
		c7.2,0.2,12.4-3,15.9-9.2C382,335.2,382.3,333.8,383.9,333.8z"/>
	<path class="st1" d="M383.9,333.8c-4,9.8-11.4,13.7-21.8,12.8c-3.2-0.3-6.5,0.2-9.7-0.1c-3.2-0.3-3.9,0.8-3.8,3.9
		c0.2,8.6,0.1,17.2,0.1,25.8c0,5.1-1.9,7.1-6.9,7.1c-8,0-16,0-23.9,0c-4.6,0-6.2-1.3-7.2-5.8c-2.2-9.3-4.6-18.6-6.6-27.9
		c-0.5-2.2-1.2-3.1-3.6-3c-30.4,0.1-60.8,0.1-91.3,0c-2.2,0-2.9,0.7-3.4,2.8c-2.1,9.3-4.4,18.6-6.6,27.9c-1.2,4.8-2.6,6-7.4,6.1
		c-8,0-16,0-23.9,0c-4.8,0-6.8-2-6.8-6.8c0-8.7-0.2-17.5,0.1-26.2c0.1-3.3-1-3.9-3.9-3.7c-4.8,0.3-9.7,0.1-14.6,0.1
		c-9.5-0.1-16.7-7.4-16.8-16.9c0-25.8,0-51.6,0-77.4c0-9.6,5.6-17.9,14.6-21.4c2.3-0.9,2.9-2,2.9-4.3c0.1-8.1-0.7-16.2,0.4-24.3
		c1.3-9.7,9.8-17.3,19.5-17.3c61.1,0,122.2-0.1,183.3,0c11.2,0,19.7,9.2,19.9,21.3c0.1,6.9,0,13.7,0.1,20.6c0,1.1-0.7,2.6,1.1,3.2
		c8.7,2.9,13.6,9.3,16.4,17.7C383.9,276.4,383.9,305.1,383.9,333.8z"/>
	<path class="st2" d="M360,0.1c5.7,2.5,10.5,5.9,12.2,12.4c0.4,1.6,0.5,3.2,0.5,4.8c0,39.6,0,79.3,0,118.9c0,10-7.2,17.2-17.1,17.3
		c-67.2,0-134.3,0-201.5,0c-9.9,0-17.1-7.2-17.1-17.3c0-38.3,0.2-76.5-0.2-114.8c-0.1-10.3,3.1-17.5,12.9-21.3
		C219.8,0.1,289.9,0.1,360,0.1z"/>
	<path class="st2" d="M51.3,383.2c-14.5,0-28.9,0-43.4,0c-5.3,0-7.1-1.8-7.1-7.2c0-3.2,0-6.5,0-9.7c0.1-9.5,7.3-16.6,16.9-16.7
		c3.5,0,7-0.1,10.5,0c2.2,0.1,2.6-0.7,2.6-2.7c-0.1-13.1-0.1-26.2,0-39.3c0-9,4.1-14.7,12.8-17.4c1.8-0.5,2.2-1.3,2.2-3
		c-0.1-26.6-0.1-53.1,0-79.7c0-2.3-0.8-2.6-2.8-2.6c-11.5,0.1-22.9,0.1-34.4,0c-5.9,0-8.1-2-7.7-7.8c1-15.8,2.2-31.6,3.4-47.3
		c1.1-14.9,2.2-29.8,3.3-44.7c0.7-9.3,7.1-16.2,16.6-16.4c18.1-0.3,36.2-0.3,54.2,0c9.6,0.1,16.1,6.9,16.8,16.6
		c2.2,29.7,4.4,59.4,6.5,89.1c0.1,1.4,0.1,2.7,0.1,4.1c0,3.9-1.8,6-5.7,6.5c-0.4,0-0.7,0-1.1,0c-2.6,0.1-6.2-0.9-7.5,0.5
		c-1.8,1.8-0.6,5.4-0.6,8.2c-0.1,9.4,0,18.7,0,28.1c0,4.4-2.1,6.8-5.6,6.8c-3.6,0-5.6-2.4-5.6-6.8c0-11.2-0.1-22.4,0-33.7
		c0-2.3-0.4-3.3-3-3.1c-4.5,0.2-9,0.1-13.5,0c-1.8,0-2.3,0.4-2.3,2.3c0.1,26.8,0.1,53.6,0,80.4c0,1.6,0.6,2,2,2.5
		c9.3,3.1,13.1,8.4,13.1,18.3c0,12.7,0.1,25.4-0.1,38.2c0,2.5,0.7,3.2,3.1,3c3.4-0.2,6.7-0.1,10.1,0c9.5,0.1,16.7,7.3,16.8,16.8
		c0,3.5,0,7,0,10.5c-0.1,4.4-2,6.4-6.4,6.4C80.7,383.2,66,383.2,51.3,383.2z"/>
	<path class="st0" d="M254.9,264.3c-5.9-6.8-13.3-8.9-21.8-8.9c-19.1,0.1-38.1,0-57.2,0.1c-2.7,0-3.6-0.5-3.6-3.4
		c-0.1-10.4-5.4-17.6-15-21.5c-1.8-0.7-2.5-1.5-2.4-3.4c0.1-7.1,0-14.2,0.1-21.3c0.1-5.8,3.7-9.4,9.6-9.7c1,0,2,0,3,0
		c58.5,0,116.9,0,175.4,0c9,0,12.1,3.1,12.1,12.1c0,6.2-0.1,12.5,0.1,18.7c0.1,2.1-0.7,2.9-2.6,3.7c-9.5,4-14.8,11.2-14.8,21.6
		c0,2.7-0.8,3.3-3.4,3.3c-18.8-0.1-37.6,0.1-56.5-0.1C268.8,255.3,260.9,257.2,254.9,264.3z"/>
	<path class="st0" d="M254.9,335.2c-26.3,0-52.6-0.1-78.9,0.1c-3.1,0-4-0.8-3.8-3.9c0.3-5.7,0.2-11.5,0-17.2c0-2.1,0.3-3,2.8-3
		c53.2,0.1,106.4,0.1,159.6,0c2.3,0,3,0.6,2.9,2.9c-0.2,6-0.2,12,0,17.9c0.1,2.7-0.8,3.2-3.4,3.2
		C307.7,335.2,281.3,335.2,254.9,335.2z"/>
	<path class="st0" d="M210.9,299.8c-11.8,0-23.7,0-35.5,0c-2.3,0-3.2-0.4-3.2-3.1c0.2-9,0.2-17.9,0-26.9c0-2.4,0.8-2.9,3-2.9
		c20.2,0.1,40.4,0,60.6,0.1c7.9,0,13.3,5.4,13.5,13.4c0.1,5.4-0.2,10.7,0.1,16.1c0.2,3.1-1.1,3.4-3.6,3.3
		C234.1,299.7,222.5,299.8,210.9,299.8z"/>
	<path class="st0" d="M298.8,299.8c-11.7,0-23.4-0.1-35.1,0.1c-2.6,0-3.4-0.7-3.3-3.3c0.2-5.4,0-10.7,0.1-16.1
		c0.1-7.9,5.5-13.4,13.4-13.4c20.2-0.1,40.4,0,60.6-0.1c2.6,0,3.1,0.9,3,3.2c-0.1,8.8-0.1,17.7,0,26.5c0,2.5-0.7,3.1-3.1,3.1
		C322.5,299.7,310.7,299.8,298.8,299.8z"/>
	<path class="st0" d="M161,292.6c0,13.1-0.1,26.2,0.1,39.3c0,2.9-0.8,3.5-3.5,3.4c-4.6-0.2-9.2,0-13.8-0.1c-4.5-0.1-6.7-2.2-6.7-6.7
		c0-25.2-0.1-50.4,0-75.5c0-7.2,5.3-12.6,12-12.6c6.7,0,11.9,5.5,11.9,12.7C161,266.2,161,279.4,161,292.6z"/>
	<path class="st0" d="M348.7,291.9c0-12.8,0-25.7,0-38.5c0-7.5,5.1-13,11.9-13c6.8,0,12,5.5,12,13c0,24.9,0,49.9,0,74.8
		c0,4.9-2.1,7-7.1,7.1c-4.6,0.1-9.2-0.2-13.8,0.1c-2.9,0.2-3.1-1-3.1-3.4C348.8,318.6,348.7,305.2,348.7,291.9z"/>
	<path class="st3" d="M172.3,359.2c0-3.5,0.1-7,0-10.5c-0.1-1.8,0.5-2.3,2.3-2.3c6,0.1,12,0.1,17.9,0c1.9,0,2.2,0.4,1.7,2.3
		c-1.8,6.8-3.3,13.7-4.9,20.6c-0.4,1.7-1,2.8-3.2,2.6c-3.8-0.2-7.7-0.1-11.6,0c-1.8,0.1-2.4-0.5-2.3-2.3
		C172.4,366.2,172.3,362.7,172.3,359.2z"/>
	<path class="st3" d="M337.4,359.2c0,3.5-0.1,7,0,10.5c0.1,1.8-0.6,2.3-2.3,2.3c-4-0.1-8-0.2-11.9,0c-1.9,0.1-2.3-0.8-2.7-2.3
		c-1.7-7.1-3.3-14.2-5.1-21.3c-0.4-1.6-0.1-1.9,1.4-1.9c6.2,0.1,12.5,0.1,18.7,0c1.8,0,2,0.9,1.9,2.3
		C337.4,352.3,337.4,355.8,337.4,359.2z"/>
	<path class="st0" d="M254.8,11.3c32.8,0,65.6,0,98.4,0c6.6,0,8.3,1.7,8.3,8.4c0,38,0,76.1,0,114.1c0,6.7-1.7,8.4-8.3,8.4
		c-65.6,0-131.2,0-196.8,0c-6.4,0-8.1-1.8-8.1-8.2c0-38.2,0-76.3,0-114.5c0-6.5,1.7-8.2,8.1-8.2C189.2,11.3,222,11.3,254.8,11.3z"/>
	<path class="st0" d="M51.3,163.4c-10.8,0-21.7-0.1-32.5,0.1c-2.9,0-4.1-0.4-3.8-3.7c1.4-18,2.6-36,3.9-54c0.3-3.7,2.3-5.5,6.1-5.6
		c17.7,0,35.4,0,53.1,0c3.5,0,5.7,1.9,5.9,5.4c1.3,18.2,2.5,36.5,3.9,54.7c0.2,2.8-0.8,3.2-3.3,3.2
		C73.4,163.3,62.3,163.4,51.3,163.4z"/>
	<path class="st0" d="M51,193.3c-11.6,0-23.2-0.1-34.8,0.1c-2.6,0-3.8-0.3-3.5-3.4c0.5-4.2,0.7-8.4,0.9-12.7c0.1-2.1,1-2.4,2.8-2.4
		c23.3,0,46.6,0,69.9,0c1.8,0,2.7,0.4,2.8,2.4c0.2,4.2,0.4,8.5,0.8,12.7c0.3,2.5-0.4,3.4-3.1,3.3C74.9,193.3,62.9,193.3,51,193.3z"
		/>
	<path class="st0" d="M60.7,327.1c0,6.6-0.1,13.2,0,19.8c0,2.1-0.4,2.8-2.6,2.7c-4.6-0.2-9.2-0.1-13.8,0c-1.7,0-2.4-0.3-2.4-2.2
		c0.1-13.4,0-26.9,0.1-40.3c0-3.9,2.2-6.1,6.1-6.1c9-0.1,13.3-1.7,12.6,11.6C60.5,317.3,60.7,322.2,60.7,327.1z"/>
	<path class="st0" d="M51.4,372c-12,0-23.9-0.1-35.9,0.1c-2.7,0-3.7-0.4-3.5-3.4c0.3-6,1.9-7.9,7.8-7.9c21,0,42.1,0,63.1,0
		c6.2,0,9.4,4.3,7.7,10.1c-0.5,2-2,1-3,1C75.5,372,63.5,372,51.4,372z"/>
	<path class="st2" d="M254.8,22.5c29.3,0,58.6,0,87.9,0c5.9,0,7.6,1.7,7.6,7.5c0,31.2,0,62.3,0,93.5c0,5.9-1.7,7.5-7.5,7.5
		c-58.6,0-117.2,0-175.7,0c-5.9,0-7.6-1.7-7.6-7.5c0-31.2,0-62.3,0-93.5c0-5.9,1.7-7.5,7.5-7.5C196.2,22.5,225.5,22.5,254.8,22.5z"
		/>
	<path class="st0" d="M339,113.1c-11.7-10.1-22.9-19.6-34-29.2c-1.3-1.1-2.6-2.3-4-3.4c-5.8-4.6-11.9-4.6-17.6,0.2
		c-8.7,7.3-17.3,14.7-25.8,22.2c-2.1,1.8-3.4,1.8-5.4,0c-8.4-7.4-16.9-14.7-25.5-21.9c-6.2-5.2-12.3-5.2-18.5,0.1
		C196.4,91,184.8,101,173.2,111c-0.6,0.5-1.3,1.1-1.9,1.6c-1-0.8-0.6-1.8-0.6-2.6c0-24.3,0-48.6-0.1-72.9c0-2.9,0.7-3.4,3.5-3.4
		c53.9,0.1,107.7,0.1,161.6,0c2.8,0,3.5,0.6,3.4,3.4C339,62.2,339,87.2,339,113.1z"/>
	<path class="st0" d="M329.2,119.7c-25,0-48.9,0-73.8,0c5-4.3,9.4-8.1,13.8-11.9c6.8-5.8,13.6-11.6,20.4-17.5
		c1.5-1.3,2.8-2.2,4.8-0.5C305.7,99.6,317.2,109.4,329.2,119.7z"/>
	<path class="st0" d="M180.4,119.8c12.2-10.5,23.8-20.4,35.2-30.3c1.4-1.2,2.6-0.9,3.9,0.2c8.3,7.1,16.6,14.3,25,21.3
		c1.6,1.3,1,1.8-0.2,3c-4,4.2-8.3,6-14.4,5.8C213.8,119.5,197.6,119.8,180.4,119.8z"/>
	<path class="st2" d="M254.7,82.4c-11.4,0-20.5-9.2-20.4-20.7c0-11.4,9.2-20.5,20.7-20.4c11.4,0,20.5,9.2,20.4,20.7
		C275.4,73.4,266.2,82.4,254.7,82.4z"/>
	<path class="st4" d="M254.9,52.5c4.9,0,9.3,4.5,9.3,9.4c-0.1,4.9-4.5,9.3-9.4,9.3c-4.9,0-9.3-4.5-9.3-9.4
		C245.6,56.8,250,52.4,254.9,52.5z"/>
</g>
</svg>
